<svg width="542" height="790" viewBox="0 0 542 790" fill="none" xmlns="http://www.w3.org/2000/svg">
<g clip-path="url(#clip0_6_2420)">
<rect width="542" height="790" rx="16" fill="white"/>
<g opacity="0.8" filter="url(#filter0_f_6_2420)">
<rect x="-198" y="-33" width="1620.74" height="1366" fill="#CBA7F4"/>
</g>
<g filter="url(#filter1_f_6_2420)">
<rect width="475.836" height="969.112" rx="116" transform="matrix(1 0 0.0151838 0.999885 63.25 231)" fill="#19222B" fill-opacity="0.11"/>
</g>
<g filter="url(#filter2_ii_6_2420)">
<rect x="50.0312" y="231" width="429.041" height="888" rx="70.9817" fill="#393348"/>
</g>
<g filter="url(#filter3_i_6_2420)">
<path d="M46.9922 404.429C46.9922 403.87 47.4459 403.416 48.0056 403.416H50.0325V435.854H48.0056C47.4459 435.854 46.9922 435.4 46.9922 434.841V404.429Z" fill="#B4B0B3"/>
<path d="M46.9922 404.429C46.9922 403.87 47.4459 403.416 48.0056 403.416H50.0325V435.854H48.0056C47.4459 435.854 46.9922 435.4 46.9922 434.841V404.429Z" fill="url(#paint0_linear_6_2420)" fill-opacity="0.8"/>
</g>
<path d="M46.9922 404.429C46.9922 403.87 47.4459 403.416 48.0056 403.416H50.0325V435.854H48.0056C47.4459 435.854 46.9922 435.4 46.9922 434.841V404.429Z" stroke="#AFABAE" stroke-width="0.506711"/>
<g filter="url(#filter4_i_6_2420)">
<path d="M46.9922 468.783C46.9922 468.223 47.4459 467.77 48.0056 467.77H50.0325V533.585H48.0056C47.4459 533.585 46.9922 533.131 46.9922 532.571V468.783Z" fill="#B4B0B3"/>
<path d="M46.9922 468.783C46.9922 468.223 47.4459 467.77 48.0056 467.77H50.0325V533.585H48.0056C47.4459 533.585 46.9922 533.131 46.9922 532.571V468.783Z" fill="url(#paint1_linear_6_2420)" fill-opacity="0.8"/>
</g>
<path d="M46.9922 468.783C46.9922 468.223 47.4459 467.77 48.0056 467.77H50.0325V533.585H48.0056C47.4459 533.585 46.9922 533.131 46.9922 532.571V468.783Z" stroke="#AFABAE" stroke-width="0.506711"/>
<g filter="url(#filter5_i_6_2420)">
<path d="M46.9922 554.162C46.9922 553.602 47.4459 553.148 48.0056 553.148H50.0325V618.964H48.0056C47.4459 618.964 46.9922 618.51 46.9922 617.95V554.162Z" fill="#B4B0B3"/>
<path d="M46.9922 554.162C46.9922 553.602 47.4459 553.148 48.0056 553.148H50.0325V618.964H48.0056C47.4459 618.964 46.9922 618.51 46.9922 617.95V554.162Z" fill="url(#paint2_linear_6_2420)" fill-opacity="0.8"/>
</g>
<path d="M46.9922 554.162C46.9922 553.602 47.4459 553.148 48.0056 553.148H50.0325V618.964H48.0056C47.4459 618.964 46.9922 618.51 46.9922 617.95V554.162Z" stroke="#AFABAE" stroke-width="0.506711"/>
<g style="mix-blend-mode:overlay">
<rect x="50.0312" y="324.836" width="5.8366" height="6.08053" fill="#4C4254"/>
</g>
<g style="mix-blend-mode:overlay">
<rect x="473.234" y="324.836" width="5.8366" height="6.08053" fill="#4C4254"/>
</g>
<g style="mix-blend-mode:overlay">
<rect x="389.891" y="231" width="5.8366" height="6.08053" transform="rotate(90 389.891 231)" fill="#4C4254"/>
</g>
<g filter="url(#filter6_i_6_2420)">
<path d="M482.117 514.843C482.117 514.284 481.663 513.83 481.104 513.83H479.077V618.965H481.104C481.663 618.965 482.117 618.511 482.117 617.951V514.843Z" fill="#B4B0B3"/>
<path d="M482.117 514.843C482.117 514.284 481.663 513.83 481.104 513.83H479.077V618.965H481.104C481.663 618.965 482.117 618.511 482.117 617.951V514.843Z" fill="url(#paint3_linear_6_2420)" fill-opacity="0.8"/>
</g>
<path d="M482.117 514.843C482.117 514.284 481.663 513.83 481.104 513.83H479.077V618.965H481.104C481.663 618.965 482.117 618.511 482.117 617.951V514.843Z" stroke="#AFABAE" stroke-width="0.506711"/>
<g clip-path="url(#clip1_6_2420)">
<rect x="55.875" y="236.473" width="417.368" height="872.678" rx="65.6698" fill="black"/>
<g filter="url(#filter7_i_6_2420)">
<path d="M222.305 236.473H306.808L305.958 238.721C305.636 239.573 304.821 240.137 303.91 240.137H225.202C224.292 240.137 223.476 239.573 223.154 238.721L222.305 236.473Z" fill="black"/>
</g>
</g>
<g filter="url(#filter8_d_6_2420)">
<rect x="90.2031" y="503" width="429.374" height="179.819" rx="12.8171" fill="white" shape-rendering="crispEdges"/>
<rect x="90.844" y="503.641" width="428.092" height="178.537" rx="12.1763" stroke="black" stroke-opacity="0.06" stroke-width="1.28171" shape-rendering="crispEdges"/>
<rect x="110.711" y="524.514" width="56.3953" height="56.3953" rx="10.2537" fill="#EDF1F3"/>
<g filter="url(#filter9_d_6_2420)">
<rect x="124.812" y="538.613" width="28.1977" height="28.1977" fill="#D9D9D9"/>
</g>
<path d="M196.869 533.135C198.899 533.135 200.606 534.058 201.137 536.042H204.251C203.767 532.604 200.791 530.366 196.938 530.366C191.862 530.366 188.517 534.011 188.517 539.133C188.517 544.324 191.816 547.762 196.546 547.762C198.83 547.762 200.744 546.862 201.667 545.57L201.852 547.508H204.344V538.026H196.499V540.633H201.598V540.702C201.598 543.401 199.822 545.016 196.892 545.016C193.777 545.016 191.608 542.963 191.608 539.202C191.608 535.557 193.523 533.135 196.869 533.135ZM211.754 547.808C214.731 547.808 216.807 546.308 217.291 543.816H214.684C214.361 544.901 213.346 545.501 211.801 545.501C209.932 545.501 208.871 544.486 208.663 542.478L217.245 542.455V541.602C217.245 538.049 215.077 535.765 211.662 535.765C208.317 535.765 205.987 538.233 205.987 541.809C205.987 545.339 208.363 547.808 211.754 547.808ZM211.685 538.072C213.369 538.072 214.454 539.11 214.454 540.679H208.732C209.009 538.972 210.024 538.072 211.685 538.072ZM222.8 547.508V538.464H225.015V536.111H222.8V532.558H219.985V536.111H217.793V538.464H219.985V547.508H222.8ZM234.875 547.508V541.371C234.875 539.525 235.936 538.326 237.666 538.326C239.12 538.326 240.065 539.248 240.065 541.163V547.508H242.88V540.494C242.88 537.541 241.404 535.765 238.543 535.765C236.997 535.765 235.613 536.434 234.898 537.587L234.667 536.111H232.06V547.508H234.875ZM250.283 547.808C253.259 547.808 255.335 546.308 255.82 543.816H253.213C252.89 544.901 251.875 545.501 250.329 545.501C248.46 545.501 247.399 544.486 247.191 542.478L255.774 542.455V541.602C255.774 538.049 253.605 535.765 250.19 535.765C246.845 535.765 244.515 538.233 244.515 541.809C244.515 545.339 246.891 547.808 250.283 547.808ZM250.214 538.072C251.898 538.072 252.982 539.11 252.982 540.679H247.26C247.537 538.972 248.552 538.072 250.214 538.072ZM259.584 547.508H262.329L263.898 542.617C264.475 540.748 264.683 539.941 264.798 539.41C264.89 539.987 265.144 541.071 265.605 542.571L267.174 547.508H269.804L273.749 536.111H270.773L269.251 541.002C269.043 541.717 268.674 543.078 268.489 543.932C268.351 543.17 267.889 541.463 267.751 541.002L266.228 536.111H263.368L261.799 541.002C261.43 542.132 261.222 542.848 261.014 543.955C260.807 542.894 260.576 541.902 260.322 541.002L258.823 536.111H255.893L259.584 547.508ZM280.08 541.786C280.08 545.408 282.341 547.808 285.802 547.808C288.778 547.808 290.993 545.985 291.339 543.332H288.501C288.201 544.578 287.209 545.27 285.802 545.27C284.002 545.27 282.895 543.932 282.895 541.786C282.895 539.641 284.094 538.279 285.894 538.279C287.232 538.279 288.178 538.949 288.501 540.241H291.316C291.016 537.495 288.893 535.765 285.779 535.765C282.41 535.765 280.08 538.256 280.08 541.786ZM296.364 547.808C298.14 547.808 299.686 547 300.17 545.824L300.378 547.508H302.847V540.587C302.847 537.426 300.955 535.765 297.886 535.765C294.795 535.765 292.765 537.38 292.765 539.848H295.164C295.164 538.649 296.087 537.956 297.748 537.956C299.178 537.956 300.101 538.579 300.101 540.125V540.379L296.687 540.633C293.987 540.84 292.465 542.155 292.465 544.255C292.465 546.4 293.941 547.808 296.364 547.808ZM297.286 545.685C296.018 545.685 295.325 545.178 295.325 544.139C295.325 543.217 295.995 542.64 297.748 542.478L300.124 542.294V542.894C300.124 544.647 299.017 545.685 297.286 545.685ZM312.302 536.065C311.841 535.949 311.449 535.903 311.056 535.903C309.534 535.903 308.449 536.665 307.965 537.795L307.803 536.134H305.15V547.508H307.965V541.971C307.965 539.756 309.234 538.672 311.264 538.672H312.302V536.065Z" fill="#1C2536"/>
<path d="M190.386 576.916V572.163C190.386 570.61 190.355 569.472 190.278 568.934L193.508 576.916H194.923L198.168 568.903C198.091 569.687 198.076 570.441 198.076 572.517V576.916H199.552V565.796H198.045L194.215 575.147L190.386 565.796H188.909V576.916H190.386ZM201.096 573.148C201.096 575.47 202.757 577.101 205.018 577.101C207.264 577.101 208.925 575.47 208.925 573.148C208.925 570.825 207.264 569.195 205.018 569.195C202.757 569.195 201.096 570.825 201.096 573.148ZM202.557 573.148C202.557 571.579 203.557 570.487 205.018 570.487C206.464 570.487 207.479 571.579 207.479 573.148C207.479 574.717 206.464 575.809 205.018 575.809C203.557 575.809 202.557 574.717 202.557 573.148ZM211.663 576.916V572.932C211.663 571.471 212.448 570.502 213.801 570.502C214.909 570.502 215.616 571.118 215.616 572.64V576.916H217.062V572.317C217.062 570.395 216.154 569.18 214.17 569.18C213.109 569.18 212.155 569.687 211.679 570.548L211.525 569.395H210.217V576.916H211.663ZM220.879 576.916V570.61H222.356V569.395H220.879V567.042H219.433V569.395H217.957V570.61H219.433V576.916H220.879ZM224.822 576.916V565.596H223.376V576.916H224.822ZM225.92 580.284C226.304 580.377 226.704 580.438 227.181 580.438C228.335 580.438 229.088 579.9 229.596 578.608L233.149 569.395H231.657L229.427 575.455L227.243 569.395H225.72L228.75 577.316L228.488 578.039C228.135 578.992 227.581 579.1 226.889 579.1H225.92V580.284ZM237.278 574.732C237.278 576.162 238.401 577.101 240.17 577.101C241.954 577.101 243.184 576.193 243.184 574.763C243.184 573.64 242.554 573.055 241.277 572.748L239.954 572.425C239.216 572.24 238.847 571.902 238.847 571.394C238.847 570.702 239.355 570.302 240.262 570.302C241.139 570.302 241.646 570.779 241.677 571.533H243.061C243.031 570.102 241.954 569.18 240.308 569.18C238.647 569.18 237.478 570.056 237.478 571.441C237.478 572.548 238.109 573.209 239.447 573.532L240.77 573.84C241.554 574.04 241.8 574.347 241.8 574.855C241.8 575.547 241.216 575.962 240.201 575.962C239.247 575.962 238.662 575.501 238.662 574.732H237.278ZM246.679 577.101C247.895 577.101 248.925 576.562 249.31 575.701L249.463 576.916H250.694V572.194C250.694 570.164 249.433 569.18 247.572 569.18C245.634 569.18 244.342 570.21 244.342 571.779H245.603C245.603 570.871 246.295 570.333 247.51 570.333C248.525 570.333 249.279 570.779 249.279 572.04V572.256L246.91 572.44C245.141 572.579 244.111 573.44 244.111 574.824C244.111 576.193 245.064 577.101 246.679 577.101ZM247.095 575.978C246.156 575.978 245.572 575.578 245.572 574.778C245.572 574.04 246.095 573.548 247.372 573.425L249.294 573.271V573.671C249.294 575.086 248.464 575.978 247.095 575.978ZM254.195 576.916H255.626L258.763 569.395H257.256L255.579 573.594C255.318 574.255 255.072 574.901 254.949 575.393C254.826 574.932 254.61 574.301 254.349 573.594L252.703 569.395H251.165L254.195 576.916ZM260.313 567.611C260.836 567.611 261.267 567.18 261.267 566.657C261.267 566.119 260.836 565.704 260.313 565.704C259.79 565.704 259.36 566.119 259.36 566.657C259.36 567.18 259.79 567.611 260.313 567.611ZM259.606 576.916H261.052V569.395H259.606V576.916ZM264.289 576.916V572.932C264.289 571.471 265.073 570.502 266.427 570.502C267.534 570.502 268.242 571.118 268.242 572.64V576.916H269.687V572.317C269.687 570.395 268.78 569.18 266.796 569.18C265.734 569.18 264.781 569.687 264.304 570.548L264.15 569.395H262.843V576.916H264.289ZM270.905 572.963C270.905 575.07 272.259 576.716 274.397 576.716C275.581 576.716 276.565 576.193 277.058 575.316V576.824C277.058 578.254 276.135 579.177 274.72 579.177C273.459 579.177 272.628 578.531 272.443 577.424H270.998C271.274 579.331 272.674 580.484 274.72 580.484C277.027 580.484 278.488 578.977 278.488 576.608V569.395H277.196L277.088 570.672C276.612 569.733 275.673 569.18 274.458 569.18C272.274 569.18 270.905 570.841 270.905 572.963ZM272.351 572.932C272.351 571.548 273.212 570.441 274.658 570.441C276.135 570.441 276.996 571.487 276.996 572.932C276.996 574.409 276.104 575.455 274.643 575.455C273.228 575.455 272.351 574.347 272.351 572.932ZM279.652 574.732C279.652 576.162 280.774 577.101 282.543 577.101C284.327 577.101 285.558 576.193 285.558 574.763C285.558 573.64 284.927 573.055 283.651 572.748L282.328 572.425C281.59 572.24 281.22 571.902 281.22 571.394C281.22 570.702 281.728 570.302 282.635 570.302C283.512 570.302 284.02 570.779 284.05 571.533H285.435C285.404 570.102 284.327 569.18 282.682 569.18C281.02 569.18 279.852 570.056 279.852 571.441C279.852 572.548 280.482 573.209 281.82 573.532L283.143 573.84C283.927 574.04 284.173 574.347 284.173 574.855C284.173 575.547 283.589 575.962 282.574 575.962C281.62 575.962 281.036 575.501 281.036 574.732H279.652ZM291.982 571.333C292.566 571.333 293.074 570.841 293.074 570.272C293.074 569.672 292.566 569.18 291.982 569.18C291.382 569.18 290.874 569.672 290.874 570.272C290.874 570.841 291.382 571.333 291.982 571.333ZM291.982 577.101C292.566 577.101 293.074 576.608 293.074 576.024C293.074 575.424 292.566 574.932 291.982 574.932C291.382 574.932 290.874 575.424 290.874 576.024C290.874 576.608 291.382 577.101 291.982 577.101ZM301.8 578.408H302.784V577.07C304.814 576.885 306.122 575.655 306.122 573.825C306.122 572.286 305.23 571.317 303.384 570.902L302.784 570.764V566.949C303.784 567.088 304.384 567.718 304.445 568.703H305.937C305.83 566.919 304.645 565.781 302.784 565.611V564.289H301.8V565.627C299.8 565.796 298.493 567.042 298.493 568.795C298.493 570.379 299.431 571.394 301.246 571.81L301.8 571.933V575.762C300.631 575.639 299.908 574.993 299.877 574.009H298.339C298.431 575.809 299.77 576.962 301.8 577.085V578.408ZM301.554 570.472C300.477 570.21 299.97 569.641 299.97 568.749C299.97 567.765 300.662 567.103 301.8 566.949V570.533L301.554 570.472ZM303.076 572.24C304.138 572.486 304.645 573.055 304.645 573.948C304.645 574.917 303.938 575.578 302.784 575.732V572.179L303.076 572.24ZM309.292 567.149V576.916H310.738V565.796H306.955V567.149H309.292ZM312.465 571.364C312.465 574.824 314.172 577.116 317.048 577.116C319.909 577.116 321.616 574.824 321.616 571.364C321.616 567.918 319.832 565.581 317.048 565.581C314.249 565.581 312.465 567.918 312.465 571.364ZM313.957 571.364C313.957 568.595 315.095 566.934 317.048 566.934C319.002 566.934 320.124 568.595 320.124 571.364C320.124 574.101 319.002 575.762 317.048 575.762C315.095 575.762 313.957 574.101 313.957 571.364ZM322.821 571.364C322.821 574.824 324.529 577.116 327.405 577.116C330.266 577.116 331.973 574.824 331.973 571.364C331.973 567.918 330.189 565.581 327.405 565.581C324.606 565.581 322.821 567.918 322.821 571.364ZM324.313 571.364C324.313 568.595 325.451 566.934 327.405 566.934C329.358 566.934 330.481 568.595 330.481 571.364C330.481 574.101 329.358 575.762 327.405 575.762C325.451 575.762 324.313 574.101 324.313 571.364ZM333.916 577.101C334.501 577.101 335.008 576.608 335.008 576.024C335.008 575.424 334.501 574.932 333.916 574.932C333.316 574.932 332.809 575.424 332.809 576.024C332.809 576.608 333.316 577.101 333.916 577.101ZM335.859 571.364C335.859 574.824 337.567 577.116 340.443 577.116C343.304 577.116 345.011 574.824 345.011 571.364C345.011 567.918 343.227 565.581 340.443 565.581C337.644 565.581 335.859 567.918 335.859 571.364ZM337.351 571.364C337.351 568.595 338.49 566.934 340.443 566.934C342.396 566.934 343.519 568.595 343.519 571.364C343.519 574.101 342.396 575.762 340.443 575.762C338.49 575.762 337.351 574.101 337.351 571.364ZM346.216 571.364C346.216 574.824 347.923 577.116 350.799 577.116C353.66 577.116 355.368 574.824 355.368 571.364C355.368 567.918 353.583 565.581 350.799 565.581C348 565.581 346.216 567.918 346.216 571.364ZM347.708 571.364C347.708 568.595 348.846 566.934 350.799 566.934C352.753 566.934 353.876 568.595 353.876 571.364C353.876 574.101 352.753 575.762 350.799 575.762C348.846 575.762 347.708 574.101 347.708 571.364Z" fill="#1C2536" fill-opacity="0.5"/>
<path d="M474.72 536.324C473.31 536.324 472.156 537.478 472.156 538.888C472.156 540.298 473.31 541.451 474.72 541.451C476.13 541.451 477.283 540.298 477.283 538.888C477.283 537.478 476.13 536.324 474.72 536.324Z" stroke="#8D929A" stroke-width="1.92257"/>
<path d="M492.665 536.324C491.255 536.324 490.102 537.478 490.102 538.888C490.102 540.298 491.255 541.451 492.665 541.451C494.075 541.451 495.228 540.298 495.228 538.888C495.228 537.478 494.075 536.324 492.665 536.324Z" stroke="#8D929A" stroke-width="1.92257"/>
<path d="M483.696 536.324C482.286 536.324 481.133 537.478 481.133 538.888C481.133 540.298 482.286 541.451 483.696 541.451C485.106 541.451 486.26 540.298 486.26 538.888C486.26 537.478 485.106 536.324 483.696 536.324Z" stroke="#8D929A" stroke-width="1.92257"/>
<path d="M115.376 634.664H116.758V633.138C119.163 632.869 120.706 631.362 120.706 629.173C120.706 627.271 119.665 626.158 117.368 625.656L116.758 625.512V621.654C117.691 621.852 118.229 622.48 118.265 623.449H120.49C120.419 621.295 119.019 619.878 116.758 619.645V618.119H115.376V619.645C112.99 619.896 111.411 621.403 111.411 623.503C111.411 625.476 112.541 626.732 114.802 627.217L115.376 627.343V631.165C114.21 631.021 113.546 630.375 113.528 629.352H111.231C111.285 631.541 112.882 632.995 115.376 633.174V634.664ZM115.305 625.189C114.156 624.938 113.654 624.382 113.654 623.431C113.654 622.462 114.3 621.816 115.376 621.636V625.207L115.305 625.189ZM116.884 627.666C117.96 627.899 118.481 628.455 118.481 629.37C118.481 630.285 117.835 630.913 116.758 631.129V627.63L116.884 627.666ZM126.265 633.174C129.19 633.174 131.181 631.236 131.181 628.401C131.181 625.817 129.441 624.041 126.821 624.041C125.924 624.041 125.134 624.274 124.506 624.687L125.206 621.959H130.392V619.842H123.555L121.94 626.714L123.968 627.145C124.434 626.463 125.35 625.961 126.354 625.961C127.934 625.961 128.849 627.002 128.849 628.527C128.849 630.124 127.862 631.129 126.319 631.129C124.865 631.129 123.986 630.249 123.986 628.76H121.707C121.707 631.416 123.519 633.174 126.265 633.174ZM133.693 633.174C134.483 633.174 135.147 632.528 135.147 631.757C135.147 630.967 134.483 630.321 133.693 630.321C132.904 630.321 132.24 630.967 132.24 631.757C132.24 632.528 132.904 633.174 133.693 633.174ZM136.078 626.427C136.078 630.483 138.141 633.192 141.622 633.192C145.104 633.192 147.185 630.483 147.185 626.427C147.185 622.354 144.978 619.591 141.622 619.591C138.267 619.591 136.078 622.354 136.078 626.427ZM138.339 626.427C138.339 623.323 139.559 621.618 141.622 621.618C143.704 621.618 144.924 623.323 144.924 626.427C144.924 629.46 143.704 631.165 141.622 631.165C139.559 631.165 138.339 629.46 138.339 626.427ZM148.371 626.427C148.371 630.483 150.434 633.192 153.915 633.192C157.397 633.192 159.478 630.483 159.478 626.427C159.478 622.354 157.271 619.591 153.915 619.591C150.56 619.591 148.371 622.354 148.371 626.427ZM150.632 626.427C150.632 623.323 151.852 621.618 153.915 621.618C155.997 621.618 157.217 623.323 157.217 626.427C157.217 629.46 155.997 631.165 153.915 631.165C151.852 631.165 150.632 629.46 150.632 626.427ZM160.664 626.427C160.664 630.483 162.727 633.192 166.208 633.192C169.69 633.192 171.771 630.483 171.771 626.427C171.771 622.354 169.564 619.591 166.208 619.591C162.853 619.591 160.664 622.354 160.664 626.427ZM162.925 626.427C162.925 623.323 164.145 621.618 166.208 621.618C168.29 621.618 169.51 623.323 169.51 626.427C169.51 629.46 168.29 631.165 166.208 631.165C164.145 631.165 162.925 629.46 162.925 626.427ZM174.139 633.174C174.928 633.174 175.592 632.528 175.592 631.757C175.592 630.967 174.928 630.321 174.139 630.321C173.349 630.321 172.685 630.967 172.685 631.757C172.685 632.528 173.349 633.174 174.139 633.174ZM176.523 626.427C176.523 630.483 178.587 633.192 182.068 633.192C185.549 633.192 187.63 630.483 187.63 626.427C187.63 622.354 185.423 619.591 182.068 619.591C178.712 619.591 176.523 622.354 176.523 626.427ZM178.784 626.427C178.784 623.323 180.004 621.618 182.068 621.618C184.149 621.618 185.369 623.323 185.369 626.427C185.369 629.46 184.149 631.165 182.068 631.165C180.004 631.165 178.784 629.46 178.784 626.427ZM188.816 626.427C188.816 630.483 190.88 633.192 194.361 633.192C197.842 633.192 199.923 630.483 199.923 626.427C199.923 622.354 197.716 619.591 194.361 619.591C191.005 619.591 188.816 622.354 188.816 626.427ZM191.077 626.427C191.077 623.323 192.297 621.618 194.361 621.618C196.442 621.618 197.663 623.323 197.663 626.427C197.663 629.46 196.442 631.165 194.361 631.165C192.297 631.165 191.077 629.46 191.077 626.427Z" fill="#1C2536"/>
<path d="M350.281 632.959V625.602H352.003V624.184H350.281V621.439H348.594V624.184H346.871V625.602H348.594V632.959H350.281ZM355.619 633.174C357.037 633.174 358.239 632.546 358.688 631.541L358.867 632.959H360.303V627.45C360.303 625.082 358.831 623.933 356.66 623.933C354.399 623.933 352.892 625.135 352.892 626.966H354.363C354.363 625.907 355.171 625.279 356.588 625.279C357.772 625.279 358.652 625.799 358.652 627.271V627.522L355.888 627.737C353.825 627.899 352.623 628.904 352.623 630.519C352.623 632.116 353.735 633.174 355.619 633.174ZM356.104 631.864C355.009 631.864 354.327 631.398 354.327 630.465C354.327 629.603 354.937 629.029 356.427 628.886L358.67 628.706V629.173C358.67 630.824 357.701 631.864 356.104 631.864ZM367.304 624.113C366.963 624.041 366.712 624.005 366.407 624.005C365.204 624.005 364.325 624.615 363.966 625.53L363.859 624.202H362.28V632.959H363.966V628.311C363.966 626.625 364.953 625.656 366.55 625.656H367.304V624.113ZM367.778 628.347C367.778 630.806 369.357 632.726 371.851 632.726C373.233 632.726 374.381 632.116 374.956 631.093V632.851C374.956 634.52 373.879 635.597 372.228 635.597C370.757 635.597 369.788 634.843 369.572 633.551H367.886C368.209 635.776 369.842 637.122 372.228 637.122C374.92 637.122 376.624 635.363 376.624 632.6V624.184H375.117L374.992 625.674C374.435 624.579 373.341 623.933 371.923 623.933C369.375 623.933 367.778 625.871 367.778 628.347ZM369.465 628.311C369.465 626.697 370.47 625.405 372.156 625.405C373.879 625.405 374.884 626.625 374.884 628.311C374.884 630.034 373.843 631.254 372.138 631.254C370.488 631.254 369.465 629.962 369.465 628.311ZM382.486 633.174C384.657 633.174 386.129 632.116 386.559 630.232H384.98C384.693 631.236 383.832 631.775 382.522 631.775C380.853 631.775 379.884 630.752 379.758 628.904L386.541 628.886V628.258C386.541 625.656 384.908 623.933 382.414 623.933C379.866 623.933 378.126 625.835 378.126 628.581C378.126 631.308 379.902 633.174 382.486 633.174ZM382.414 625.351C383.904 625.351 384.855 626.32 384.855 627.773H379.794C380.01 626.23 380.943 625.351 382.414 625.351ZM390.455 632.959V625.602H392.178V624.184H390.455V621.439H388.768V624.184H387.046V625.602H388.768V632.959H390.455ZM394.768 626.445C395.45 626.445 396.042 625.871 396.042 625.207C396.042 624.507 395.45 623.933 394.768 623.933C394.068 623.933 393.476 624.507 393.476 625.207C393.476 625.871 394.068 626.445 394.768 626.445ZM394.768 633.174C395.45 633.174 396.042 632.6 396.042 631.918C396.042 631.218 395.45 630.644 394.768 630.644C394.068 630.644 393.476 631.218 393.476 631.918C393.476 632.6 394.068 633.174 394.768 633.174ZM406.222 634.7H407.371V633.138C409.739 632.923 411.265 631.488 411.265 629.352C411.265 627.558 410.224 626.427 408.071 625.943L407.371 625.781V621.331C408.537 621.493 409.237 622.228 409.309 623.377H411.049C410.924 621.295 409.542 619.968 407.371 619.77V618.227H406.222V619.788C403.89 619.985 402.364 621.439 402.364 623.485C402.364 625.333 403.459 626.517 405.576 627.002L406.222 627.145V631.613C404.859 631.47 404.015 630.716 403.979 629.568H402.185C402.293 631.667 403.854 633.013 406.222 633.156V634.7ZM405.935 625.44C404.679 625.135 404.087 624.471 404.087 623.431C404.087 622.282 404.894 621.511 406.222 621.331V625.512L405.935 625.44ZM407.712 627.504C408.95 627.791 409.542 628.455 409.542 629.496C409.542 630.626 408.717 631.398 407.371 631.577V627.432L407.712 627.504ZM421.19 632.941V631.308H415.197L417.889 628.975C420.185 626.984 421.101 625.674 421.101 623.826C421.101 621.331 419.432 619.752 416.83 619.752C414.192 619.752 412.434 621.565 412.38 624.346H414.138C414.174 622.498 415.215 621.331 416.812 621.331C418.373 621.331 419.306 622.3 419.306 623.933C419.306 625.315 418.714 626.194 416.615 628.006L412.434 631.613V632.959L421.19 632.941ZM426.688 633.174C429.487 633.174 431.407 631.29 431.407 628.599C431.407 626.104 429.702 624.256 427.064 624.256C426.095 624.256 425.234 624.525 424.552 625.046L425.414 621.6H430.635V619.985H424.14L422.56 626.643L424.05 627.02C424.642 626.284 425.647 625.763 426.741 625.763C428.554 625.763 429.612 627.002 429.612 628.67C429.612 630.429 428.482 631.595 426.723 631.595C425.073 631.595 424.05 630.572 424.05 628.904H422.309C422.309 631.488 424.032 633.174 426.688 633.174ZM433.781 633.174C434.463 633.174 435.055 632.6 435.055 631.918C435.055 631.218 434.463 630.644 433.781 630.644C433.082 630.644 432.489 631.218 432.489 631.918C432.489 632.6 433.082 633.174 433.781 633.174ZM436.049 626.481C436.049 630.519 438.04 633.192 441.396 633.192C444.734 633.192 446.725 630.519 446.725 626.481C446.725 622.462 444.644 619.734 441.396 619.734C438.13 619.734 436.049 622.462 436.049 626.481ZM437.789 626.481C437.789 623.251 439.117 621.313 441.396 621.313C443.675 621.313 444.985 623.251 444.985 626.481C444.985 629.675 443.675 631.613 441.396 631.613C439.117 631.613 437.789 629.675 437.789 626.481ZM448.131 626.481C448.131 630.519 450.123 633.192 453.479 633.192C456.816 633.192 458.808 630.519 458.808 626.481C458.808 622.462 456.727 619.734 453.479 619.734C450.213 619.734 448.131 622.462 448.131 626.481ZM449.872 626.481C449.872 623.251 451.2 621.313 453.479 621.313C455.758 621.313 457.068 623.251 457.068 626.481C457.068 629.675 455.758 631.613 453.479 631.613C451.2 631.613 449.872 629.675 449.872 626.481ZM460.214 626.481C460.214 630.519 462.206 633.192 465.561 633.192C468.899 633.192 470.891 630.519 470.891 626.481C470.891 622.462 468.809 619.734 465.561 619.734C462.296 619.734 460.214 622.462 460.214 626.481ZM461.955 626.481C461.955 623.251 463.283 621.313 465.561 621.313C467.84 621.313 469.15 623.251 469.15 626.481C469.15 629.675 467.84 631.613 465.561 631.613C463.283 631.613 461.955 629.675 461.955 626.481ZM473.158 633.174C473.84 633.174 474.432 632.6 474.432 631.918C474.432 631.218 473.84 630.644 473.158 630.644C472.458 630.644 471.866 631.218 471.866 631.918C471.866 632.6 472.458 633.174 473.158 633.174ZM475.425 626.481C475.425 630.519 477.417 633.192 480.773 633.192C484.11 633.192 486.102 630.519 486.102 626.481C486.102 622.462 484.02 619.734 480.773 619.734C477.507 619.734 475.425 622.462 475.425 626.481ZM477.166 626.481C477.166 623.251 478.494 621.313 480.773 621.313C483.051 621.313 484.361 623.251 484.361 626.481C484.361 629.675 483.051 631.613 480.773 631.613C478.494 631.613 477.166 629.675 477.166 626.481ZM487.508 626.481C487.508 630.519 489.5 633.192 492.855 633.192C496.193 633.192 498.185 630.519 498.185 626.481C498.185 622.462 496.103 619.734 492.855 619.734C489.589 619.734 487.508 622.462 487.508 626.481ZM489.248 626.481C489.248 623.251 490.576 621.313 492.855 621.313C495.134 621.313 496.444 623.251 496.444 626.481C496.444 629.675 495.134 631.613 492.855 631.613C490.576 631.613 489.248 629.675 489.248 626.481Z" fill="#1C2536" fill-opacity="0.5"/>
<rect x="110.711" y="662.311" width="12.8171" height="189.693" rx="6.40856" transform="rotate(-90 110.711 662.311)" fill="#4567E0"/>
<rect x="302.969" y="662.311" width="12.8171" height="196.102" rx="6.40856" transform="rotate(-90 302.969 662.311)" fill="#E0E0EB"/>
</g>
<g opacity="0.4" filter="url(#filter10_f_6_2420)">
<g filter="url(#filter11_f_6_2420)">
<rect x="456.602" y="156.262" width="53.6327" height="23.7391" rx="11.8695" fill="black" fill-opacity="0.19"/>
</g>
<rect x="448.688" y="96.4746" width="68.5795" height="68.5795" rx="13.7159" fill="#EDF1F3"/>
<g filter="url(#filter12_d_6_2420)">
<rect x="465.836" y="113.619" width="34.2897" height="34.2897" fill="#D9D9D9"/>
</g>
</g>
<g opacity="0.4" filter="url(#filter13_f_6_2420)">
<g filter="url(#filter14_f_6_2420)">
<rect x="32.9141" y="156.262" width="53.6327" height="23.7391" rx="11.8695" fill="black" fill-opacity="0.19"/>
</g>
<rect x="25" y="96.4746" width="68.5795" height="68.5795" rx="13.7159" fill="#EDF1F3"/>
<g filter="url(#filter15_d_6_2420)">
<rect x="42.1484" y="113.619" width="34.2897" height="34.2897" fill="#D9D9D9"/>
</g>
</g>
<g opacity="0.94" filter="url(#filter16_f_6_2420)">
<g filter="url(#filter17_f_6_2420)">
<rect x="357.57" y="151.443" width="63.4285" height="28.0749" rx="14.0374" fill="black" fill-opacity="0.19"/>
</g>
<rect x="348.211" y="80.7363" width="81.1053" height="81.1053" rx="16.2211" fill="#EDF1F3"/>
<g filter="url(#filter18_d_6_2420)">
<rect x="368.484" y="101.012" width="40.5526" height="40.5526" fill="#D9D9D9"/>
</g>
</g>
<g opacity="0.9" filter="url(#filter19_f_6_2420)">
<g filter="url(#filter20_f_6_2420)">
<rect x="136.047" y="151.443" width="63.4285" height="28.0749" rx="14.0374" fill="black" fill-opacity="0.19"/>
</g>
<rect x="126.688" y="80.7363" width="81.1053" height="81.1053" rx="16.2211" fill="#EDF1F3"/>
<g filter="url(#filter21_d_6_2420)">
<rect x="146.961" y="101.012" width="40.5526" height="40.5526" fill="#D9D9D9"/>
</g>
</g>
<g filter="url(#filter22_f_6_2420)">
<rect x="246.531" y="147.316" width="73.8421" height="32.6842" rx="16.3421" fill="black" fill-opacity="0.19"/>
</g>
<rect x="235.633" y="65" width="94.4211" height="94.4211" rx="18.8842" fill="#EDF1F3"/>
<g filter="url(#filter23_d_6_2420)">
<rect x="259.234" y="88.6055" width="47.2105" height="47.2105" fill="#D9D9D9"/>
</g>
</g>
<defs>
<filter id="filter0_f_6_2420" x="-814.546" y="-649.546" width="2853.83" height="2599.09" filterUnits="userSpaceOnUse" color-interpolation-filters="sRGB">
<feFlood flood-opacity="0" result="BackgroundImageFix"/>
<feBlend mode="normal" in="SourceGraphic" in2="BackgroundImageFix" result="shape"/>
<feGaussianBlur stdDeviation="308.273" result="effect1_foregroundBlur_6_2420"/>
</filter>
<filter id="filter1_f_6_2420" x="29.3831" y="195.383" width="558.288" height="1040.23" filterUnits="userSpaceOnUse" color-interpolation-filters="sRGB">
<feFlood flood-opacity="0" result="BackgroundImageFix"/>
<feBlend mode="normal" in="SourceGraphic" in2="BackgroundImageFix" result="shape"/>
<feGaussianBlur stdDeviation="17.8084" result="effect1_foregroundBlur_6_2420"/>
</filter>
<filter id="filter2_ii_6_2420" x="50.0312" y="231" width="429.039" height="888" filterUnits="userSpaceOnUse" color-interpolation-filters="sRGB">
<feFlood flood-opacity="0" result="BackgroundImageFix"/>
<feBlend mode="normal" in="SourceGraphic" in2="BackgroundImageFix" result="shape"/>
<feColorMatrix in="SourceAlpha" type="matrix" values="0 0 0 0 0 0 0 0 0 0 0 0 0 0 0 0 0 0 127 0" result="hardAlpha"/>
<feMorphology radius="3.04027" operator="erode" in="SourceAlpha" result="effect1_innerShadow_6_2420"/>
<feOffset/>
<feComposite in2="hardAlpha" operator="arithmetic" k2="-1" k3="1"/>
<feColorMatrix type="matrix" values="0 0 0 0 0.384766 0 0 0 0 0.331597 0 0 0 0 0.416667 0 0 0 1 0"/>
<feBlend mode="normal" in2="shape" result="effect1_innerShadow_6_2420"/>
<feColorMatrix in="SourceAlpha" type="matrix" values="0 0 0 0 0 0 0 0 0 0 0 0 0 0 0 0 0 0 127 0" result="hardAlpha"/>
<feMorphology radius="1.01342" operator="erode" in="SourceAlpha" result="effect2_innerShadow_6_2420"/>
<feOffset/>
<feGaussianBlur stdDeviation="0.506711"/>
<feComposite in2="hardAlpha" operator="arithmetic" k2="-1" k3="1"/>
<feColorMatrix type="matrix" values="0 0 0 0 0.733333 0 0 0 0 0.721569 0 0 0 0 0.72549 0 0 0 1 0"/>
<feBlend mode="normal" in2="effect1_innerShadow_6_2420" result="effect2_innerShadow_6_2420"/>
</filter>
<filter id="filter3_i_6_2420" x="46.7422" y="402.149" width="4.5603" height="33.9587" filterUnits="userSpaceOnUse" color-interpolation-filters="sRGB">
<feFlood flood-opacity="0" result="BackgroundImageFix"/>
<feBlend mode="normal" in="SourceGraphic" in2="BackgroundImageFix" result="shape"/>
<feColorMatrix in="SourceAlpha" type="matrix" values="0 0 0 0 0 0 0 0 0 0 0 0 0 0 0 0 0 0 127 0" result="hardAlpha"/>
<feOffset dx="1.01342" dy="-1.01342"/>
<feGaussianBlur stdDeviation="0.506711"/>
<feComposite in2="hardAlpha" operator="arithmetic" k2="-1" k3="1"/>
<feColorMatrix type="matrix" values="0 0 0 0 1 0 0 0 0 1 0 0 0 0 1 0 0 0 1 0"/>
<feBlend mode="normal" in2="shape" result="effect1_innerShadow_6_2420"/>
</filter>
<filter id="filter4_i_6_2420" x="46.7422" y="466.502" width="4.5603" height="67.3357" filterUnits="userSpaceOnUse" color-interpolation-filters="sRGB">
<feFlood flood-opacity="0" result="BackgroundImageFix"/>
<feBlend mode="normal" in="SourceGraphic" in2="BackgroundImageFix" result="shape"/>
<feColorMatrix in="SourceAlpha" type="matrix" values="0 0 0 0 0 0 0 0 0 0 0 0 0 0 0 0 0 0 127 0" result="hardAlpha"/>
<feOffset dx="1.01342" dy="-1.01342"/>
<feGaussianBlur stdDeviation="0.506711"/>
<feComposite in2="hardAlpha" operator="arithmetic" k2="-1" k3="1"/>
<feColorMatrix type="matrix" values="0 0 0 0 1 0 0 0 0 1 0 0 0 0 1 0 0 0 1 0"/>
<feBlend mode="normal" in2="shape" result="effect1_innerShadow_6_2420"/>
</filter>
<filter id="filter5_i_6_2420" x="46.7422" y="551.881" width="4.5603" height="67.3357" filterUnits="userSpaceOnUse" color-interpolation-filters="sRGB">
<feFlood flood-opacity="0" result="BackgroundImageFix"/>
<feBlend mode="normal" in="SourceGraphic" in2="BackgroundImageFix" result="shape"/>
<feColorMatrix in="SourceAlpha" type="matrix" values="0 0 0 0 0 0 0 0 0 0 0 0 0 0 0 0 0 0 127 0" result="hardAlpha"/>
<feOffset dx="1.01342" dy="-1.01342"/>
<feGaussianBlur stdDeviation="0.506711"/>
<feComposite in2="hardAlpha" operator="arithmetic" k2="-1" k3="1"/>
<feColorMatrix type="matrix" values="0 0 0 0 1 0 0 0 0 1 0 0 0 0 1 0 0 0 1 0"/>
<feBlend mode="normal" in2="shape" result="effect1_innerShadow_6_2420"/>
</filter>
<filter id="filter6_i_6_2420" x="478.82" y="512.563" width="4.5603" height="106.656" filterUnits="userSpaceOnUse" color-interpolation-filters="sRGB">
<feFlood flood-opacity="0" result="BackgroundImageFix"/>
<feBlend mode="normal" in="SourceGraphic" in2="BackgroundImageFix" result="shape"/>
<feColorMatrix in="SourceAlpha" type="matrix" values="0 0 0 0 0 0 0 0 0 0 0 0 0 0 0 0 0 0 127 0" result="hardAlpha"/>
<feOffset dx="1.01342" dy="-1.01342"/>
<feGaussianBlur stdDeviation="0.506711"/>
<feComposite in2="hardAlpha" operator="arithmetic" k2="-1" k3="1"/>
<feColorMatrix type="matrix" values="0 0 0 0 1 0 0 0 0 1 0 0 0 0 1 0 0 0 1 0"/>
<feBlend mode="normal" in2="shape" result="effect1_innerShadow_6_2420"/>
</filter>
<filter id="filter7_i_6_2420" x="222.305" y="235.013" width="84.5" height="5.12339" filterUnits="userSpaceOnUse" color-interpolation-filters="sRGB">
<feFlood flood-opacity="0" result="BackgroundImageFix"/>
<feBlend mode="normal" in="SourceGraphic" in2="BackgroundImageFix" result="shape"/>
<feColorMatrix in="SourceAlpha" type="matrix" values="0 0 0 0 0 0 0 0 0 0 0 0 0 0 0 0 0 0 127 0" result="hardAlpha"/>
<feOffset dy="-1.45933"/>
<feGaussianBlur stdDeviation="0.729664"/>
<feComposite in2="hardAlpha" operator="arithmetic" k2="-1" k3="1"/>
<feColorMatrix type="matrix" values="0 0 0 0 0.220833 0 0 0 0 0.220833 0 0 0 0 0.220833 0 0 0 1 0"/>
<feBlend mode="normal" in2="shape" result="effect1_innerShadow_6_2420"/>
</filter>
<filter id="filter8_d_6_2420" x="2.9568" y="460.414" width="603.868" height="354.311" filterUnits="userSpaceOnUse" color-interpolation-filters="sRGB">
<feFlood flood-opacity="0" result="BackgroundImageFix"/>
<feColorMatrix in="SourceAlpha" type="matrix" values="0 0 0 0 0 0 0 0 0 0 0 0 0 0 0 0 0 0 127 0" result="hardAlpha"/>
<feOffset dy="44.66"/>
<feGaussianBlur stdDeviation="43.6232"/>
<feComposite in2="hardAlpha" operator="out"/>
<feColorMatrix type="matrix" values="0 0 0 0 0 0 0 0 0 0 0 0 0 0 0 0 0 0 0.22 0"/>
<feBlend mode="normal" in2="BackgroundImageFix" result="effect1_dropShadow_6_2420"/>
<feBlend mode="normal" in="SourceGraphic" in2="effect1_dropShadow_6_2420" result="shape"/>
</filter>
<filter id="filter9_d_6_2420" x="119.686" y="538.613" width="38.449" height="38.451" filterUnits="userSpaceOnUse" color-interpolation-filters="sRGB">
<feFlood flood-opacity="0" result="BackgroundImageFix"/>
<feColorMatrix in="SourceAlpha" type="matrix" values="0 0 0 0 0 0 0 0 0 0 0 0 0 0 0 0 0 0 127 0" result="hardAlpha"/>
<feOffset dy="5.12685"/>
<feGaussianBlur stdDeviation="2.56342"/>
<feComposite in2="hardAlpha" operator="out"/>
<feColorMatrix type="matrix" values="0 0 0 0 0 0 0 0 0 0 0 0 0 0 0 0 0 0 0.2 0"/>
<feBlend mode="normal" in2="BackgroundImageFix" result="effect1_dropShadow_6_2420"/>
<feBlend mode="normal" in="SourceGraphic" in2="effect1_dropShadow_6_2420" result="shape"/>
</filter>
<filter id="filter10_f_6_2420" x="444.688" y="92.4746" width="76.5781" height="91.5254" filterUnits="userSpaceOnUse" color-interpolation-filters="sRGB">
<feFlood flood-opacity="0" result="BackgroundImageFix"/>
<feBlend mode="normal" in="SourceGraphic" in2="BackgroundImageFix" result="shape"/>
<feGaussianBlur stdDeviation="2" result="effect1_foregroundBlur_6_2420"/>
</filter>
<filter id="filter11_f_6_2420" x="426.708" y="126.368" width="113.42" height="83.5255" filterUnits="userSpaceOnUse" color-interpolation-filters="sRGB">
<feFlood flood-opacity="0" result="BackgroundImageFix"/>
<feBlend mode="normal" in="SourceGraphic" in2="BackgroundImageFix" result="shape"/>
<feGaussianBlur stdDeviation="14.9468" result="effect1_foregroundBlur_6_2420"/>
</filter>
<filter id="filter12_d_6_2420" x="458.978" y="113.619" width="48.005" height="48.005" filterUnits="userSpaceOnUse" color-interpolation-filters="sRGB">
<feFlood flood-opacity="0" result="BackgroundImageFix"/>
<feColorMatrix in="SourceAlpha" type="matrix" values="0 0 0 0 0 0 0 0 0 0 0 0 0 0 0 0 0 0 127 0" result="hardAlpha"/>
<feOffset dy="6.85795"/>
<feGaussianBlur stdDeviation="3.42898"/>
<feComposite in2="hardAlpha" operator="out"/>
<feColorMatrix type="matrix" values="0 0 0 0 0 0 0 0 0 0 0 0 0 0 0 0 0 0 0.2 0"/>
<feBlend mode="normal" in2="BackgroundImageFix" result="effect1_dropShadow_6_2420"/>
<feBlend mode="normal" in="SourceGraphic" in2="effect1_dropShadow_6_2420" result="shape"/>
</filter>
<filter id="filter13_f_6_2420" x="21" y="92.4746" width="76.5781" height="91.5254" filterUnits="userSpaceOnUse" color-interpolation-filters="sRGB">
<feFlood flood-opacity="0" result="BackgroundImageFix"/>
<feBlend mode="normal" in="SourceGraphic" in2="BackgroundImageFix" result="shape"/>
<feGaussianBlur stdDeviation="2" result="effect1_foregroundBlur_6_2420"/>
</filter>
<filter id="filter14_f_6_2420" x="3.02043" y="126.368" width="113.42" height="83.5255" filterUnits="userSpaceOnUse" color-interpolation-filters="sRGB">
<feFlood flood-opacity="0" result="BackgroundImageFix"/>
<feBlend mode="normal" in="SourceGraphic" in2="BackgroundImageFix" result="shape"/>
<feGaussianBlur stdDeviation="14.9468" result="effect1_foregroundBlur_6_2420"/>
</filter>
<filter id="filter15_d_6_2420" x="35.2905" y="113.619" width="48.005" height="48.005" filterUnits="userSpaceOnUse" color-interpolation-filters="sRGB">
<feFlood flood-opacity="0" result="BackgroundImageFix"/>
<feColorMatrix in="SourceAlpha" type="matrix" values="0 0 0 0 0 0 0 0 0 0 0 0 0 0 0 0 0 0 127 0" result="hardAlpha"/>
<feOffset dy="6.85795"/>
<feGaussianBlur stdDeviation="3.42898"/>
<feComposite in2="hardAlpha" operator="out"/>
<feColorMatrix type="matrix" values="0 0 0 0 0 0 0 0 0 0 0 0 0 0 0 0 0 0 0.2 0"/>
<feBlend mode="normal" in2="BackgroundImageFix" result="effect1_dropShadow_6_2420"/>
<feBlend mode="normal" in="SourceGraphic" in2="effect1_dropShadow_6_2420" result="shape"/>
</filter>
<filter id="filter16_f_6_2420" x="344.211" y="76.7363" width="89.1016" height="106.781" filterUnits="userSpaceOnUse" color-interpolation-filters="sRGB">
<feFlood flood-opacity="0" result="BackgroundImageFix"/>
<feBlend mode="normal" in="SourceGraphic" in2="BackgroundImageFix" result="shape"/>
<feGaussianBlur stdDeviation="2" result="effect1_foregroundBlur_6_2420"/>
</filter>
<filter id="filter17_f_6_2420" x="322.217" y="116.09" width="134.137" height="98.7814" filterUnits="userSpaceOnUse" color-interpolation-filters="sRGB">
<feFlood flood-opacity="0" result="BackgroundImageFix"/>
<feBlend mode="normal" in="SourceGraphic" in2="BackgroundImageFix" result="shape"/>
<feGaussianBlur stdDeviation="17.6768" result="effect1_foregroundBlur_6_2420"/>
</filter>
<filter id="filter18_d_6_2420" x="360.374" y="101.012" width="56.7757" height="56.7738" filterUnits="userSpaceOnUse" color-interpolation-filters="sRGB">
<feFlood flood-opacity="0" result="BackgroundImageFix"/>
<feColorMatrix in="SourceAlpha" type="matrix" values="0 0 0 0 0 0 0 0 0 0 0 0 0 0 0 0 0 0 127 0" result="hardAlpha"/>
<feOffset dy="8.11053"/>
<feGaussianBlur stdDeviation="4.05526"/>
<feComposite in2="hardAlpha" operator="out"/>
<feColorMatrix type="matrix" values="0 0 0 0 0 0 0 0 0 0 0 0 0 0 0 0 0 0 0.2 0"/>
<feBlend mode="normal" in2="BackgroundImageFix" result="effect1_dropShadow_6_2420"/>
<feBlend mode="normal" in="SourceGraphic" in2="effect1_dropShadow_6_2420" result="shape"/>
</filter>
<filter id="filter19_f_6_2420" x="122.688" y="76.7363" width="89.1016" height="106.781" filterUnits="userSpaceOnUse" color-interpolation-filters="sRGB">
<feFlood flood-opacity="0" result="BackgroundImageFix"/>
<feBlend mode="normal" in="SourceGraphic" in2="BackgroundImageFix" result="shape"/>
<feGaussianBlur stdDeviation="2" result="effect1_foregroundBlur_6_2420"/>
</filter>
<filter id="filter20_f_6_2420" x="100.693" y="116.09" width="134.137" height="98.7814" filterUnits="userSpaceOnUse" color-interpolation-filters="sRGB">
<feFlood flood-opacity="0" result="BackgroundImageFix"/>
<feBlend mode="normal" in="SourceGraphic" in2="BackgroundImageFix" result="shape"/>
<feGaussianBlur stdDeviation="17.6768" result="effect1_foregroundBlur_6_2420"/>
</filter>
<filter id="filter21_d_6_2420" x="138.85" y="101.012" width="56.7757" height="56.7738" filterUnits="userSpaceOnUse" color-interpolation-filters="sRGB">
<feFlood flood-opacity="0" result="BackgroundImageFix"/>
<feColorMatrix in="SourceAlpha" type="matrix" values="0 0 0 0 0 0 0 0 0 0 0 0 0 0 0 0 0 0 127 0" result="hardAlpha"/>
<feOffset dy="8.11053"/>
<feGaussianBlur stdDeviation="4.05526"/>
<feComposite in2="hardAlpha" operator="out"/>
<feColorMatrix type="matrix" values="0 0 0 0 0 0 0 0 0 0 0 0 0 0 0 0 0 0 0.2 0"/>
<feBlend mode="normal" in2="BackgroundImageFix" result="effect1_dropShadow_6_2420"/>
<feBlend mode="normal" in="SourceGraphic" in2="effect1_dropShadow_6_2420" result="shape"/>
</filter>
<filter id="filter22_f_6_2420" x="205.373" y="106.159" width="156.16" height="114.999" filterUnits="userSpaceOnUse" color-interpolation-filters="sRGB">
<feFlood flood-opacity="0" result="BackgroundImageFix"/>
<feBlend mode="normal" in="SourceGraphic" in2="BackgroundImageFix" result="shape"/>
<feGaussianBlur stdDeviation="20.5789" result="effect1_foregroundBlur_6_2420"/>
</filter>
<filter id="filter23_d_6_2420" x="249.792" y="88.6055" width="66.0951" height="66.0951" filterUnits="userSpaceOnUse" color-interpolation-filters="sRGB">
<feFlood flood-opacity="0" result="BackgroundImageFix"/>
<feColorMatrix in="SourceAlpha" type="matrix" values="0 0 0 0 0 0 0 0 0 0 0 0 0 0 0 0 0 0 127 0" result="hardAlpha"/>
<feOffset dy="9.44211"/>
<feGaussianBlur stdDeviation="4.72105"/>
<feComposite in2="hardAlpha" operator="out"/>
<feColorMatrix type="matrix" values="0 0 0 0 0 0 0 0 0 0 0 0 0 0 0 0 0 0 0.2 0"/>
<feBlend mode="normal" in2="BackgroundImageFix" result="effect1_dropShadow_6_2420"/>
<feBlend mode="normal" in="SourceGraphic" in2="effect1_dropShadow_6_2420" result="shape"/>
</filter>
<linearGradient id="paint0_linear_6_2420" x1="48.5123" y1="403.416" x2="48.5123" y2="435.854" gradientUnits="userSpaceOnUse">
<stop offset="0.00311524" stop-color="#C0B7BD"/>
<stop offset="0.09375" stop-color="#1E1423"/>
<stop offset="0.140625" stop-color="#605565"/>
<stop offset="0.864583" stop-color="#605968"/>
<stop offset="0.916667" stop-color="#1E1423"/>
<stop offset="1" stop-color="#CDC9CF"/>
</linearGradient>
<linearGradient id="paint1_linear_6_2420" x1="48.5123" y1="467.77" x2="48.5123" y2="533.585" gradientUnits="userSpaceOnUse">
<stop offset="0.00311524" stop-color="#C0B7BD"/>
<stop offset="0.09375" stop-color="#1E1423"/>
<stop offset="0.140625" stop-color="#605565"/>
<stop offset="0.864583" stop-color="#605968"/>
<stop offset="0.916667" stop-color="#1E1423"/>
<stop offset="1" stop-color="#CDC9CF"/>
</linearGradient>
<linearGradient id="paint2_linear_6_2420" x1="48.5123" y1="553.148" x2="48.5123" y2="618.964" gradientUnits="userSpaceOnUse">
<stop offset="0.00311524" stop-color="#C0B7BD"/>
<stop offset="0.09375" stop-color="#1E1423"/>
<stop offset="0.140625" stop-color="#605565"/>
<stop offset="0.864583" stop-color="#605968"/>
<stop offset="0.916667" stop-color="#1E1423"/>
<stop offset="1" stop-color="#CDC9CF"/>
</linearGradient>
<linearGradient id="paint3_linear_6_2420" x1="480.597" y1="513.83" x2="480.597" y2="618.965" gradientUnits="userSpaceOnUse">
<stop offset="0.00311524" stop-color="#C0B7BD"/>
<stop offset="0.09375" stop-color="#1E1423"/>
<stop offset="0.140625" stop-color="#605565"/>
<stop offset="0.864583" stop-color="#605968"/>
<stop offset="0.916667" stop-color="#1E1423"/>
<stop offset="1" stop-color="#CDC9CF"/>
</linearGradient>
<clipPath id="clip0_6_2420">
<rect width="542" height="790" rx="16" fill="white"/>
</clipPath>
<clipPath id="clip1_6_2420">
<rect x="55.875" y="236.473" width="417.368" height="872.678" rx="65.6698" fill="white"/>
</clipPath>
</defs>
</svg>
